# xmcd
#
# Track frame offsets: 
#        150
#        24010
#        36795
#        55004
#        76714
#        88628
#        102844
#        118040
#        138274
#        159901
#        180770
#        194355
#        219585
#        238683
#        257077
#
# Disc length: 3617 seconds
#
# Revision: 0
# Processed by: cddbd v1.5.2PL0 Copyright (c) Steve Scherf et al.
# Submitted via: ExactAudioCopyFreeDBPlugin 1.0
#
DISCID=af0e1f0f
DTITLE=小娟 and 山谷里的居民 - 細說往事
DYEAR=2007
DGENRE=Folk
TTITLE0=細說往事
TTITLE1=GONE THE RAINBOW
TTITLE2=惦記這一些
TTITLE3=我倆永隔一江水
TTITLE4=我的家
TTITLE5=再愛我一次
TTITLE6=春夏秋冬
TTITLE7=FLOWER
TTITLE8=綠島小夜曲
TTITLE9=玻璃心
TTITLE10=blowing in the wind
TTITLE11=空白
TTITLE12=野百合也有春天
TTITLE13=夢田
TTITLE14=歸來的燕子
EXTD=
EXTT0=
EXTT1=
EXTT2=
EXTT3=
EXTT4=
EXTT5=
EXTT6=
EXTT7=
EXTT8=
EXTT9=
EXTT10=
EXTT11=
EXTT12=
EXTT13=
EXTT14=
PLAYORDER=
